<svg height="152" width="532"><g><line stroke="grey" stroke-width="0.5" x1="110.0" x2="110.0" y1="0" y2="150" /><line stroke="grey" stroke-width="0.5" x1="150.0" x2="150.0" y1="0" y2="150" /><line stroke="grey" stroke-width="0.5" x1="190.0" x2="190.0" y1="0" y2="150" /><line stroke="grey" stroke-width="0.5" x1="230.0" x2="230.0" y1="0" y2="150" /><line stroke="grey" stroke-width="0.5" x1="270.0" x2="270.0" y1="0" y2="150" /><line stroke="grey" stroke-width="0.5" x1="310.0" x2="310.0" y1="0" y2="150" /><line stroke="grey" stroke-width="0.5" x1="350.0" x2="350.0" y1="0" y2="150" /><line stroke="grey" stroke-width="0.5" x1="390.0" x2="390.0" y1="0" y2="150" /><line stroke="grey" stroke-width="0.5" x1="430.0" x2="430.0" y1="0" y2="150" /><line stroke="grey" stroke-width="0.5" x1="470.0" x2="470.0" y1="0" y2="150" /><line stroke="grey" stroke-width="0.5" x1="510.0" x2="510.0" y1="0" y2="150" /></g><g><text font-family="Helvetica" font-size="14.285714" text-anchor="end" x="86.000000" y="16.000000">CLK</text><path d="M90.000000,20.000000 h20.000000 v-20.000000 h20.000000 v20.000000" fill="none" stroke="black" stroke-linecap="square" /><path d="M130.000000,20.000000 h20.000000 v-20.000000 h20.000000 v20.000000" fill="none" stroke="black" stroke-linecap="square" /><path d="M170.000000,20.000000 h20.000000 v-20.000000 h20.000000 v20.000000" fill="none" stroke="black" stroke-linecap="square" /><path d="M210.000000,20.000000 h20.000000 v-20.000000 h20.000000 v20.000000" fill="none" stroke="black" stroke-linecap="square" /><path d="M250.000000,20.000000 h20.000000 v-20.000000 h20.000000 v20.000000" fill="none" stroke="black" stroke-linecap="square" /><path d="M290.000000,20.000000 h20.000000 v-20.000000 h20.000000 v20.000000" fill="none" stroke="black" stroke-linecap="square" /><path d="M330.000000,20.000000 h20.000000 v-20.000000 h20.000000 v20.000000" fill="none" stroke="black" stroke-linecap="square" /><path d="M370.000000,20.000000 h20.000000 v-20.000000 h20.000000 v20.000000" fill="none" stroke="black" stroke-linecap="square" /><path d="M410.000000,20.000000 h20.000000 v-20.000000 h20.000000 v20.000000" fill="none" stroke="black" stroke-linecap="square" /><path d="M450.000000,20.000000 h20.000000 v-20.000000 h20.000000 v20.000000" fill="none" stroke="black" stroke-linecap="square" /><path d="M490.000000,20.000000 h20.000000 v-20.000000 h20.000000 v20.000000" fill="none" stroke="black" stroke-linecap="square" /></g><g><text font-family="Helvetica" font-size="14.285714" text-anchor="end" x="86.000000" y="46.000000">DATAEN</text><path d="M90.000000,30.000000  l5.000000, 0.000000 h35.000000" fill="none" stroke="black" stroke-linecap="square" /><path d="M130.000000,30.000000  l5.000000, 20.000000 h35.000000" fill="none" stroke="black" stroke-linecap="square" /><path d="M170.000000,50.000000  l5.000000, 0.000000 h35.000000" fill="none" stroke="black" stroke-linecap="square" /><path d="M210.000000,50.000000  l5.000000, 0.000000 h35.000000" fill="none" stroke="black" stroke-linecap="square" /><path d="M250.000000,50.000000  l5.000000, 0.000000 h35.000000" fill="none" stroke="black" stroke-linecap="square" /><path d="M290.000000,50.000000  l5.000000, 0.000000 h35.000000" fill="none" stroke="black" stroke-linecap="square" /><path d="M330.000000,50.000000  l5.000000, 0.000000 h35.000000" fill="none" stroke="black" stroke-linecap="square" /><g><line stroke="black" x1="370.0" x2="387.5" y1="50.0" y2="50.0" /><line stroke="black" x1="385.0" x2="390.0" y1="55.0" y2="45.0" /><line stroke="black" x1="390.0" x2="395.0" y1="55.0" y2="45.0" /><line stroke="black" x1="392.5" x2="410.0" y1="50.0" y2="50.0" /></g><path d="M410.000000,50.000000  l5.000000, 0.000000 h35.000000" fill="none" stroke="black" stroke-linecap="square" /><path d="M450.000000,50.000000  l5.000000, -20.000000 h35.000000" fill="none" stroke="black" stroke-linecap="square" /><path d="M490.000000,30.000000  l5.000000, 0.000000 h35.000000" fill="none" stroke="black" stroke-linecap="square" /></g><g><text font-family="Helvetica" font-size="14.285714" text-anchor="end" x="86.000000" y="76.000000">DATAACK</text><path d="M90.000000,60.000000  l5.000000, 0.000000 h35.000000" fill="none" stroke="black" stroke-linecap="square" /><path d="M130.000000,60.000000  l5.000000, 0.000000 h35.000000" fill="none" stroke="black" stroke-linecap="square" /><path d="M170.000000,60.000000  l5.000000, 20.000000 h35.000000" fill="none" stroke="black" stroke-linecap="square" /><path d="M210.000000,80.000000  l5.000000, 0.000000 h35.000000" fill="none" stroke="black" stroke-linecap="square" /><path d="M250.000000,80.000000  l5.000000, 0.000000 h35.000000" fill="none" stroke="black" stroke-linecap="square" /><path d="M290.000000,80.000000  l5.000000, 0.000000 h35.000000" fill="none" stroke="black" stroke-linecap="square" /><path d="M330.000000,80.000000  l5.000000, 0.000000 h35.000000" fill="none" stroke="black" stroke-linecap="square" /><g><line stroke="black" x1="370.0" x2="387.5" y1="80.0" y2="80.0" /><line stroke="black" x1="385.0" x2="390.0" y1="85.0" y2="75.0" /><line stroke="black" x1="390.0" x2="395.0" y1="85.0" y2="75.0" /><line stroke="black" x1="392.5" x2="410.0" y1="80.0" y2="80.0" /></g><path d="M410.000000,80.000000  l5.000000, -20.000000 h35.000000" fill="none" stroke="black" stroke-linecap="square" /><path d="M450.000000,60.000000  l5.000000, 0.000000 h35.000000" fill="none" stroke="black" stroke-linecap="square" /><path d="M490.000000,60.000000  l5.000000, 0.000000 h35.000000" fill="none" stroke="black" stroke-linecap="square" /></g><g><text font-family="Helvetica" font-size="14.285714" text-anchor="end" x="86.000000" y="106.000000">SYSDATA</text><path d="M90.000000,100.000000  l5.000000, 0.000000 h35.000000" fill="none" stroke="black" stroke-linecap="square" /><g><path d="M130.000000,100.000000 l5.000000,-10.000000 h30.000000 l5.000000,10.000000 l-5.000000,10.000000 h-30.000000 Z" fill="powderblue" stroke="black" stroke-linecap="square" /><text font-family="Helvetica" font-size="10.526316" text-anchor="middle" x="150.000000" y="105.000000">D0</text></g><g><path d="M170.000000,100.000000 l5.000000,-10.000000 h30.000000 l5.000000,10.000000 l-5.000000,10.000000 h-30.000000 Z" fill="powderblue" stroke="black" stroke-linecap="square" /><text font-family="Helvetica" font-size="10.526316" text-anchor="middle" x="190.000000" y="105.000000">D1</text></g><g><path d="M210.000000,100.000000 l5.000000,-10.000000 h30.000000 l5.000000,10.000000 l-5.000000,10.000000 h-30.000000 Z" fill="powderblue" stroke="black" stroke-linecap="square" /><text font-family="Helvetica" font-size="10.526316" text-anchor="middle" x="230.000000" y="105.000000">D2</text></g><g><path d="M250.000000,100.000000 l5.000000,-10.000000 h30.000000 l5.000000,10.000000 l-5.000000,10.000000 h-30.000000 Z" fill="powderblue" stroke="black" stroke-linecap="square" /><text font-family="Helvetica" font-size="10.526316" text-anchor="middle" x="270.000000" y="105.000000">D3</text></g><g><path d="M290.000000,100.000000 l5.000000,-10.000000 h30.000000 l5.000000,10.000000 l-5.000000,10.000000 h-30.000000 Z" fill="powderblue" stroke="black" stroke-linecap="square" /><text font-family="Helvetica" font-size="10.526316" text-anchor="middle" x="310.000000" y="105.000000">D4</text></g><g><path d="M330.000000,100.000000 l5.000000,-10.000000 h30.000000 l5.000000,10.000000 l-5.000000,10.000000 h-30.000000 Z" fill="powderblue" stroke="black" stroke-linecap="square" /><text font-family="Helvetica" font-size="10.526316" text-anchor="middle" x="350.000000" y="105.000000">D5</text></g><g><line stroke="black" x1="370.0" x2="387.5" y1="100.0" y2="100.0" /><line stroke="black" x1="385.0" x2="390.0" y1="105.0" y2="95.0" /><line stroke="black" x1="390.0" x2="395.0" y1="105.0" y2="95.0" /><line stroke="black" x1="392.5" x2="410.0" y1="100.0" y2="100.0" /></g><g><path d="M410.000000,100.000000 l5.000000,-10.000000 h30.000000 l5.000000,10.000000 l-5.000000,10.000000 h-30.000000 Z" fill="powderblue" stroke="black" stroke-linecap="square" /><text font-family="Helvetica" font-size="10.526316" text-anchor="middle" x="430.000000" y="105.000000">Dn-3</text></g><g><path d="M450.000000,100.000000 l5.000000,-10.000000 h30.000000 l5.000000,10.000000 l-5.000000,10.000000 h-30.000000 Z" fill="powderblue" stroke="black" stroke-linecap="square" /><text font-family="Helvetica" font-size="10.526316" text-anchor="middle" x="470.000000" y="105.000000">Dn-2</text></g><g><path d="M490.000000,100.000000 l5.000000,-10.000000 h30.000000 l5.000000,10.000000 l-5.000000,10.000000 h-30.000000 Z" fill="powderblue" stroke="black" stroke-linecap="square" /><text font-family="Helvetica" font-size="10.526316" text-anchor="middle" x="510.000000" y="105.000000">Dn-1</text></g></g><g><text font-family="Helvetica" font-size="14.285714" text-anchor="end" x="86.000000" y="136.000000">FOOBAR</text><path d="M90.000000,130.000000  l5.000000, 0.000000 h35.000000" fill="none" stroke="black" stroke-linecap="square" /><g><path d="M130.000000,130.000000 l5.000000,-10.000000 h30.000000 l5.000000,10.000000 l-5.000000,10.000000 h-30.000000 Z" fill="palegreen" stroke="black" stroke-linecap="square" /><text font-family="Helvetica" font-size="10.526316" text-anchor="middle" x="150.000000" y="135.000000">D0</text></g><g><path d="M170.000000,130.000000 l5.000000,-10.000000 h30.000000 l5.000000,10.000000 l-5.000000,10.000000 h-30.000000 Z" fill="palegreen" stroke="black" stroke-linecap="square" /><text font-family="Helvetica" font-size="10.526316" text-anchor="middle" x="190.000000" y="135.000000">D1</text></g><g><path d="M210.000000,130.000000 l5.000000,-10.000000 h30.000000 l5.000000,10.000000 l-5.000000,10.000000 h-30.000000 Z" fill="palegreen" stroke="black" stroke-linecap="square" /><text font-family="Helvetica" font-size="10.526316" text-anchor="middle" x="230.000000" y="135.000000">D2</text></g><g><path d="M250.000000,130.000000 l5.000000,-10.000000 h30.000000 l5.000000,10.000000 l-5.000000,10.000000 h-30.000000 Z" fill="lightpink" stroke="black" stroke-linecap="square" /><text font-family="Helvetica" font-size="10.526316" text-anchor="middle" x="270.000000" y="135.000000">D3</text></g><g><path d="M290.000000,130.000000 l5.000000,-10.000000 h30.000000 l5.000000,10.000000 l-5.000000,10.000000 h-30.000000 Z" fill="lightpink" stroke="black" stroke-linecap="square" /><text font-family="Helvetica" font-size="10.526316" text-anchor="middle" x="310.000000" y="135.000000">D4</text></g><g><path d="M330.000000,130.000000 l5.000000,-10.000000 h30.000000 l5.000000,10.000000 l-5.000000,10.000000 h-30.000000 Z" fill="lightpink" stroke="black" stroke-linecap="square" /><text font-family="Helvetica" font-size="10.526316" text-anchor="middle" x="350.000000" y="135.000000">D5</text></g><g><line stroke="black" x1="370.0" x2="387.5" y1="130.0" y2="130.0" /><line stroke="black" x1="385.0" x2="390.0" y1="135.0" y2="125.0" /><line stroke="black" x1="390.0" x2="395.0" y1="135.0" y2="125.0" /><line stroke="black" x1="392.5" x2="410.0" y1="130.0" y2="130.0" /></g><g><path d="M410.000000,130.000000 l5.000000,-10.000000 h30.000000 l5.000000,10.000000 l-5.000000,10.000000 h-30.000000 Z" fill="powderblue" stroke="black" stroke-linecap="square" /><text font-family="Helvetica" font-size="10.526316" text-anchor="middle" x="430.000000" y="135.000000">Dn-3</text></g><g><path d="M450.000000,130.000000 l5.000000,-10.000000 h30.000000 l5.000000,10.000000 l-5.000000,10.000000 h-30.000000 Z" fill="powderblue" stroke="black" stroke-linecap="square" /><text font-family="Helvetica" font-size="10.526316" text-anchor="middle" x="470.000000" y="135.000000">Dn-2</text></g><g><path d="M490.000000,130.000000 l5.000000,-10.000000 h30.000000 l5.000000,10.000000 l-5.000000,10.000000 h-30.000000 Z" fill="powderblue" stroke="black" stroke-linecap="square" /><text font-family="Helvetica" font-size="10.526316" text-anchor="middle" x="510.000000" y="135.000000">Dn-1</text></g></g></svg>