<svg><g><text font-family="Helvetica" font-size="14.285714" text-anchor="end" x="86.000000" y="26.000000">CLK</text><path d="M90.000000,30.000000 h20.000000 v-20.000000 h20.000000 v20.000000" fill="none" stroke="black" stroke-linecap="square" /><path d="M130.000000,30.000000 h20.000000 v-20.000000 h20.000000 v20.000000" fill="none" stroke="black" stroke-linecap="square" /><path d="M170.000000,30.000000 h20.000000 v-20.000000 h20.000000 v20.000000" fill="none" stroke="black" stroke-linecap="square" /><path d="M210.000000,30.000000 h20.000000 v-20.000000 h20.000000 v20.000000" fill="none" stroke="black" stroke-linecap="square" /><path d="M250.000000,30.000000 h20.000000 v-20.000000 h20.000000 v20.000000" fill="none" stroke="black" stroke-linecap="square" /><path d="M290.000000,30.000000 h20.000000 v-20.000000 h20.000000 v20.000000" fill="none" stroke="black" stroke-linecap="square" /><path d="M330.000000,30.000000 h20.000000 v-20.000000 h20.000000 v20.000000" fill="none" stroke="black" stroke-linecap="square" /><path d="M370.000000,30.000000 h20.000000 v-20.000000 h20.000000 v20.000000" fill="none" stroke="black" stroke-linecap="square" /><path d="M410.000000,30.000000 h20.000000 v-20.000000 h20.000000 v20.000000" fill="none" stroke="black" stroke-linecap="square" /><path d="M450.000000,30.000000 h20.000000 v-20.000000 h20.000000 v20.000000" fill="none" stroke="black" stroke-linecap="square" /><path d="M490.000000,30.000000 h20.000000 v-20.000000 h20.000000 v20.000000" fill="none" stroke="black" stroke-linecap="square" /></g><g><text font-family="Helvetica" font-size="14.285714" text-anchor="end" x="86.000000" y="56.000000">DATAEN</text><path d="M90.000000,40.000000  l5.000000, 0.000000 h35.000000" fill="none" stroke="black" stroke-linecap="square" /><path d="M130.000000,40.000000  l5.000000, 0.000000 h35.000000" fill="none" stroke="black" stroke-linecap="square" /><path d="M170.000000,40.000000  l5.000000, 0.000000 h35.000000" fill="none" stroke="black" stroke-linecap="square" /><path d="M210.000000,40.000000  l5.000000, 0.000000 h35.000000" fill="none" stroke="black" stroke-linecap="square" /><path d="M250.000000,40.000000  l5.000000, 20.000000 h35.000000" fill="none" stroke="black" stroke-linecap="square" /><g><line stroke="black" x1="290.0" x2="307.5" y1="60.0" y2="60.0" /><line stroke="black" x1="305.0" x2="310.0" y1="65.0" y2="55.0" /><line stroke="black" x1="310.0" x2="315.0" y1="65.0" y2="55.0" /><line stroke="black" x1="312.5" x2="330.0" y1="60.0" y2="60.0" /></g><path d="M330.000000,60.000000  l5.000000, -20.000000 h35.000000" fill="none" stroke="black" stroke-linecap="square" /><path d="M370.000000,40.000000  l5.000000, 10.000000 h35.000000" fill="none" stroke="black" stroke-linecap="square" /><path d="M410.000000,50.000000  l5.000000, -10.000000 h35.000000" fill="none" stroke="black" stroke-linecap="square" /><path d="M450.000000,40.000000  l5.000000, 20.000000 h35.000000" fill="none" stroke="black" stroke-linecap="square" /><path d="M490.000000,60.000000  l5.000000, -20.000000 h35.000000" fill="none" stroke="black" stroke-linecap="square" /></g><g><text font-family="Helvetica" font-size="14.285714" text-anchor="end" x="86.000000" y="86.000000">DATAACK</text><path d="M90.000000,70.000000  l5.000000, 0.000000 h35.000000" fill="none" stroke="black" stroke-linecap="square" /><path d="M130.000000,70.000000  l5.000000, 0.000000 h35.000000" fill="none" stroke="black" stroke-linecap="square" /><path d="M170.000000,70.000000  l5.000000, 20.000000 h35.000000" fill="none" stroke="black" stroke-linecap="square" /><path d="M210.000000,90.000000  l5.000000, -10.000000 h35.000000" fill="none" stroke="black" stroke-linecap="square" /><path d="M250.000000,80.000000  l5.000000, 0.000000 h35.000000" fill="none" stroke="black" stroke-linecap="square" /><g><line stroke="black" x1="290.0" x2="307.5" y1="80.0" y2="80.0" /><line stroke="black" x1="305.0" x2="310.0" y1="85.0" y2="75.0" /><line stroke="black" x1="310.0" x2="315.0" y1="85.0" y2="75.0" /><line stroke="black" x1="312.5" x2="330.0" y1="80.0" y2="80.0" /></g><path d="M330.000000,80.000000  l5.000000, 10.000000 h35.000000" fill="none" stroke="black" stroke-linecap="square" /><path d="M370.000000,90.000000  l5.000000, -10.000000 h35.000000" fill="none" stroke="black" stroke-linecap="square" /><path d="M410.000000,80.000000  l5.000000, -10.000000 h35.000000" fill="none" stroke="black" stroke-linecap="square" /><path d="M450.000000,70.000000  l5.000000, 20.000000 h35.000000" fill="none" stroke="black" stroke-linecap="square" /><path d="M490.000000,90.000000  l5.000000, -10.000000 h35.000000" fill="none" stroke="black" stroke-linecap="square" /></g><g><text font-family="Helvetica" font-size="14.285714" text-anchor="end" x="86.000000" y="116.000000">SYSDATA</text><g><path d="M90.000000,110.000000 l5.000000,-10.000000 h30.000000 l5.000000,10.000000 l-5.000000,10.000000 h-30.000000 Z" fill="powderblue" stroke="black" stroke-linecap="square" /><text font-family="Helvetica" font-size="10.526316" text-anchor="middle" x="110.000000" y="114.700000">D0</text></g><g><path d="M130.000000,110.000000 l5.000000,-10.000000 h30.000000 l5.000000,10.000000 l-5.000000,10.000000 h-30.000000 Z" fill="powderblue" stroke="black" stroke-linecap="square" /><text font-family="Helvetica" font-size="10.526316" text-anchor="middle" x="150.000000" y="114.700000">D1</text></g><g><path d="M170.000000,110.000000 l5.000000,-10.000000 h30.000000 l5.000000,10.000000 l-5.000000,10.000000 h-30.000000 Z" fill="powderblue" stroke="black" stroke-linecap="square" /><text font-family="Helvetica" font-size="10.526316" text-anchor="middle" x="190.000000" y="114.700000">D2</text></g><g><path d="M210.000000,110.000000 l5.000000,-10.000000 h30.000000 l5.000000,10.000000 l-5.000000,10.000000 h-30.000000 Z" fill="powderblue" stroke="black" stroke-linecap="square" /><text font-family="Helvetica" font-size="10.526316" text-anchor="middle" x="230.000000" y="114.700000">D3</text></g><g><path d="M250.000000,110.000000 l5.000000,-10.000000 h30.000000 l5.000000,10.000000 l-5.000000,10.000000 h-30.000000 Z" fill="powderblue" stroke="black" stroke-linecap="square" /><text font-family="Helvetica" font-size="10.526316" text-anchor="middle" x="270.000000" y="114.700000">D4</text></g><g><path d="M290.000000,110.000000 l5.000000,-10.000000 h30.000000 l5.000000,10.000000 l-5.000000,10.000000 h-30.000000 Z" fill="powderblue" stroke="black" stroke-linecap="square" /><text font-family="Helvetica" font-size="10.526316" text-anchor="middle" x="310.000000" y="114.700000">D5</text></g><g><line stroke="black" x1="330.0" x2="347.5" y1="110.0" y2="110.0" /><line stroke="black" x1="345.0" x2="350.0" y1="115.0" y2="105.0" /><line stroke="black" x1="350.0" x2="355.0" y1="115.0" y2="105.0" /><line stroke="black" x1="352.5" x2="370.0" y1="110.0" y2="110.0" /></g><g><path d="M370.000000,110.000000 l5.000000,-10.000000 h30.000000 l5.000000,10.000000 l-5.000000,10.000000 h-30.000000 Z" fill="powderblue" stroke="black" stroke-linecap="square" /><text font-family="Helvetica" font-size="10.526316" text-anchor="middle" x="390.000000" y="114.700000">Dn-3</text></g><g><path d="M410.000000,110.000000 l5.000000,-10.000000 h30.000000 l5.000000,10.000000 l-5.000000,10.000000 h-30.000000 Z" fill="powderblue" stroke="black" stroke-linecap="square" /><text font-family="Helvetica" font-size="10.526316" text-anchor="middle" x="430.000000" y="114.700000">Dn-2</text></g><g><path d="M450.000000,110.000000 l5.000000,-10.000000 h30.000000 l5.000000,10.000000 l-5.000000,10.000000 h-30.000000 Z" fill="powderblue" stroke="black" stroke-linecap="square" /><text font-family="Helvetica" font-size="10.526316" text-anchor="middle" x="470.000000" y="114.700000">Dn-1</text></g><path d="M490.000000,110.000000  l5.000000, 0.000000 h35.000000" fill="none" stroke="black" stroke-linecap="square" /><path d="M530.000000,110.000000  l5.000000, 0.000000 h35.000000" fill="none" stroke="black" stroke-linecap="square" /></g><g><text font-family="Helvetica" font-size="14.285714" text-anchor="end" x="86.000000" y="146.000000">FOOBAR</text><g><path d="M90.000000,140.000000 l5.000000,-10.000000 h30.000000 l5.000000,10.000000 l-5.000000,10.000000 h-30.000000 Z" fill="palegreen" stroke="black" stroke-linecap="square" /><text font-family="Helvetica" font-size="10.526316" text-anchor="middle" x="110.000000" y="144.700000">D0</text></g><g><path d="M130.000000,140.000000 l5.000000,-10.000000 h30.000000 l5.000000,10.000000 l-5.000000,10.000000 h-30.000000 Z" fill="palegreen" stroke="black" stroke-linecap="square" /><text font-family="Helvetica" font-size="10.526316" text-anchor="middle" x="150.000000" y="144.700000">D1</text></g><g><path d="M170.000000,140.000000 l5.000000,-10.000000 h30.000000 l5.000000,10.000000 l-5.000000,10.000000 h-30.000000 Z" fill="palegreen" stroke="black" stroke-linecap="square" /><text font-family="Helvetica" font-size="10.526316" text-anchor="middle" x="190.000000" y="144.700000">D2</text></g><g><path d="M210.000000,140.000000 l5.000000,-10.000000 h30.000000 l5.000000,10.000000 l-5.000000,10.000000 h-30.000000 Z" fill="palegreen" stroke="black" stroke-linecap="square" /><text font-family="Helvetica" font-size="10.526316" text-anchor="middle" x="230.000000" y="144.700000">D3</text></g><g><path d="M250.000000,140.000000 l5.000000,-10.000000 h30.000000 l5.000000,10.000000 l-5.000000,10.000000 h-30.000000 Z" fill="lightpink" stroke="black" stroke-linecap="square" /><text font-family="Helvetica" font-size="10.526316" text-anchor="middle" x="270.000000" y="144.700000">D4</text></g><g><path d="M290.000000,140.000000 l5.000000,-10.000000 h30.000000 l5.000000,10.000000 l-5.000000,10.000000 h-30.000000 Z" fill="lightpink" stroke="black" stroke-linecap="square" /><text font-family="Helvetica" font-size="10.526316" text-anchor="middle" x="310.000000" y="144.700000">D5</text></g><g><line stroke="black" x1="330.0" x2="347.5" y1="140.0" y2="140.0" /><line stroke="black" x1="345.0" x2="350.0" y1="145.0" y2="135.0" /><line stroke="black" x1="350.0" x2="355.0" y1="145.0" y2="135.0" /><line stroke="black" x1="352.5" x2="370.0" y1="140.0" y2="140.0" /></g><g><path d="M370.000000,140.000000 l5.000000,-10.000000 h30.000000 l5.000000,10.000000 l-5.000000,10.000000 h-30.000000 Z" fill="lightsalmon" stroke="black" stroke-linecap="square" /><text font-family="Helvetica" font-size="10.526316" text-anchor="middle" x="390.000000" y="144.700000">Dn-3</text></g><g><path d="M410.000000,140.000000 l5.000000,-10.000000 h30.000000 l5.000000,10.000000 l-5.000000,10.000000 h-30.000000 Z" fill="lightsalmon" stroke="black" stroke-linecap="square" /><text font-family="Helvetica" font-size="10.526316" text-anchor="middle" x="430.000000" y="144.700000">Dn-2</text></g><g><path d="M450.000000,140.000000 l5.000000,-10.000000 h30.000000 l5.000000,10.000000 l-5.000000,10.000000 h-30.000000 Z" fill="lightsalmon" stroke="black" stroke-linecap="square" /><text font-family="Helvetica" font-size="10.526316" text-anchor="middle" x="470.000000" y="144.700000">Dn-1</text></g><path d="M490.000000,140.000000  l5.000000, 0.000000 h35.000000" fill="none" stroke="black" stroke-linecap="square" /><path d="M530.000000,140.000000  l5.000000, 0.000000 h35.000000" fill="none" stroke="black" stroke-linecap="square" /></g></svg>